<svg width="24" height="24" viewBox="0 0 24 24" fill="none" xmlns="http://www.w3.org/2000/svg">
    <path d="M20.2272 16.75C19.3935 18.1941 18.1944 19.3933 16.7503 20.2271C15.3063 21.0608 13.6682 21.4999 12.0007 21.5C10.3333 21.5001 8.69513 21.0614 7.25096 20.2278C5.80679 19.3942 4.60746 18.1952 3.7735 16.7513" stroke="#4CE5B1" stroke-width="5"/>
    <path d="M12 2.5C13.6675 2.5 15.3056 2.93889 16.7497 3.77257C18.1938 4.60625 19.393 5.80535 20.2269 7.24936C21.0607 8.69337 21.4998 10.3314 21.5 11.9989C21.5002 13.6664 21.0615 15.3045 20.228 16.7487" stroke="#7295FC" stroke-width="5" stroke-linecap="round"/>
    <path d="M3.77276 16.75C2.93902 15.3059 2.50007 13.6678 2.5 12.0004C2.49993 10.3329 2.93876 8.69478 3.77239 7.25064C4.60601 5.8065 5.80506 4.60722 7.24904 3.77331C8.69301 2.93941 10.331 2.50026 11.9985 2.5" stroke="#4CE5B1" stroke-width="5"/>
</svg>
