<svg fill="none" height="24" viewBox="0 0 24 24" width="24" xmlns="http://www.w3.org/2000/svg">
    <g stroke-width="5">
        <path d="m3.77276 16.75c-.83374-1.4441-1.27269-3.0822-1.27276-4.7496-.00007-1.6675.43876-3.30562 1.27239-4.74976.83362-1.44414 2.03267-2.64342 3.47665-3.47733 1.44397-.8339 3.08196-1.27305 4.74946-1.27331" stroke="#c5c8ce"/>
        <path d="m20.2272 16.75c-.8337 1.4441-2.0328 2.6433-3.4769 3.4771-1.444.8337-3.0821 1.2728-4.7496 1.2729-1.6674.0001-3.30557-.4386-4.74974-1.2722s-2.6435-2.0326-3.47746-3.4765" stroke="#7295FC" stroke-linecap="round"/>
        <path d="m12 2.5c1.6675 0 3.3056.43889 4.7497 1.27257s2.6433 2.03278 3.4772 3.47679c.8338 1.44401 1.2729 3.08204 1.2731 4.74954s-.4385 3.3056-1.272 4.7498" stroke="#4CE5B1"/>
    </g>
</svg>