<svg width="19" height="19" viewBox="0 0 19 19" fill="none" xmlns="http://www.w3.org/2000/svg">
<path d="M18.2092 14.1783C18.2251 14.772 18.0667 15.3341 17.7817 15.817C17.6234 16.102 17.4097 16.3633 17.1722 16.577C16.6259 17.0837 15.9055 17.3924 15.1059 17.4162C13.9501 17.4399 12.9288 16.8462 12.3667 15.9358C12.0659 15.4687 11.8838 14.9066 11.8759 14.3129C11.8522 13.3154 12.2955 12.4129 13.008 11.8191C13.5463 11.3758 14.2272 11.0987 14.9713 11.0829C16.7209 11.0433 18.1697 12.4287 18.2092 14.1783Z" stroke="#9B9B9B" stroke-width="1.5" stroke-miterlimit="10" stroke-linecap="round" stroke-linejoin="round"/>
<path d="M13.8086 14.2728L14.6082 15.0328L16.2628 13.4336" stroke="#9B9B9B" stroke-width="1.5" stroke-linecap="round" stroke-linejoin="round"/>
<path d="M2.50781 5.89062L9.49822 9.93603L16.4411 5.91435" stroke="#9B9B9B" stroke-width="1.5" stroke-linecap="round" stroke-linejoin="round"/>
<path d="M9.5 17.1082V9.92773" stroke="#9B9B9B" stroke-width="1.5" stroke-linecap="round" stroke-linejoin="round"/>
<path d="M17.1064 7.26024V11.7411C17.1064 11.7807 17.1065 11.8123 17.0985 11.8519C16.5444 11.369 15.8319 11.084 15.0402 11.084C14.296 11.084 13.6073 11.3453 13.061 11.7807C12.3327 12.3586 11.8735 13.2532 11.8735 14.2507C11.8735 14.8444 12.0398 15.4065 12.3327 15.8815C12.4039 16.0082 12.491 16.1269 12.586 16.2378L11.1373 17.0373C10.2348 17.544 8.76227 17.544 7.85977 17.0373L3.63228 14.694C2.67436 14.1636 1.89062 12.8336 1.89062 11.7411V7.26024C1.89062 6.16774 2.67436 4.83775 3.63228 4.30733L7.85977 1.96398C8.76227 1.45732 10.2348 1.45732 11.1373 1.96398L15.3648 4.30733C16.3227 4.83775 17.1064 6.16774 17.1064 7.26024Z" stroke="#9B9B9B" stroke-width="1.5" stroke-linecap="round" stroke-linejoin="round"/>
</svg>
