<svg width="12" height="12" viewBox="0 0 12 12" fill="none" xmlns="http://www.w3.org/2000/svg">
<path fill-rule="evenodd" clip-rule="evenodd" d="M0 5.85323C0 2.62089 2.68661 0 6 0C9.31339 0 12 2.62089 12 5.85323C12 9.08557 9.31339 11.7065 6 11.7065C2.68661 11.7065 0 9.08557 0 5.85323ZM5.35469 8.56038L9.08058 3.89609C9.09665 3.87257 9.11004 3.84383 9.10737 3.80986C9.10737 3.77589 9.09397 3.74453 9.07254 3.7184L8.2529 3.08866C8.22612 3.06775 8.19397 3.05469 8.15915 3.05469C8.12433 3.05469 8.09219 3.07037 8.0654 3.09127L5.08415 6.82793C5.08415 6.82793 3.91094 5.72784 3.87879 5.69648C3.87444 5.69223 3.86988 5.68754 3.86509 5.68262C3.83458 5.65125 3.79471 5.61025 3.73683 5.61025C3.68319 5.61025 3.65379 5.64118 3.6253 5.67115C3.61965 5.6771 3.61403 5.68302 3.60826 5.68864C3.58147 5.71477 3.16362 6.14331 2.95737 6.35497C2.94665 6.36803 2.93862 6.37587 2.9279 6.38632C2.91183 6.40984 2.89844 6.43859 2.89844 6.46994C2.89844 6.5013 2.91183 6.53004 2.9279 6.55356L2.96808 6.59276C2.96808 6.59276 5.04665 8.54209 5.08147 8.57606C5.08286 8.57741 5.08425 8.57877 5.08565 8.58014C5.11952 8.61329 5.15892 8.65184 5.21808 8.65184C5.26751 8.65184 5.3094 8.60771 5.33901 8.57652C5.3447 8.57053 5.34994 8.56501 5.35469 8.56038Z" fill="#00801C"/>
</svg>
