<svg width="14" height="14" viewBox="0 0 14 14" fill="none" xmlns="http://www.w3.org/2000/svg">
<rect width="14" height="14" fill="#FF0000" fill-opacity="0.01"/>
<path fill-rule="evenodd" clip-rule="evenodd" d="M9.18728 11.7792C8.5169 12.0539 7.77651 12.2073 6.99844 12.2073C3.90498 12.2073 1.39844 9.78962 1.39844 6.80385C1.39844 3.82078 3.90498 1.40039 6.99844 1.40039C10.0919 1.40039 12.5984 3.82078 12.5931 6.80924C12.5931 7.88347 12.2673 8.88501 11.7046 9.7277C11.6804 9.75731 11.6588 9.79231 11.6373 9.82731C11.5727 9.94308 11.5323 10.0777 11.5323 10.2204L12.1273 12.6004L9.86574 11.7685C9.76613 11.7254 9.65575 11.7039 9.53998 11.7039C9.43498 11.7039 9.33267 11.7227 9.23844 11.7577C9.23844 11.7604 9.23575 11.7604 9.23305 11.7604C9.2169 11.7658 9.20344 11.7712 9.18728 11.7792ZM10.4446 7.00039C10.4446 6.52385 10.0596 6.13885 9.58305 6.13885C9.10651 6.13885 8.72151 6.52385 8.72151 7.00039C8.72151 7.47693 9.10651 7.86193 9.58305 7.86193C10.0596 7.86193 10.4446 7.47693 10.4446 7.00039ZM6.99844 6.13885C7.47498 6.13885 7.85998 6.52385 7.85998 7.00039C7.85998 7.47693 7.47498 7.86193 6.99844 7.86193C6.5219 7.86193 6.1369 7.47693 6.1369 7.00039C6.1369 6.52385 6.5219 6.13885 6.99844 6.13885ZM5.27536 7.00039C5.27536 6.52385 4.89036 6.13885 4.41382 6.13885C3.93728 6.13885 3.55228 6.52385 3.55228 7.00039C3.55228 7.47693 3.93728 7.86193 4.41382 7.86193C4.89036 7.86193 5.27536 7.47693 5.27536 7.00039Z" fill="black"/>
<mask id="mask0_45_43481" style="mask-type:luminance" maskUnits="userSpaceOnUse" x="1" y="1" width="12" height="12">
<path fill-rule="evenodd" clip-rule="evenodd" d="M9.18728 11.7792C8.5169 12.0539 7.77651 12.2073 6.99844 12.2073C3.90498 12.2073 1.39844 9.78962 1.39844 6.80385C1.39844 3.82078 3.90498 1.40039 6.99844 1.40039C10.0919 1.40039 12.5984 3.82078 12.5931 6.80924C12.5931 7.88347 12.2673 8.88501 11.7046 9.7277C11.6804 9.75731 11.6588 9.79231 11.6373 9.82731C11.5727 9.94308 11.5323 10.0777 11.5323 10.2204L12.1273 12.6004L9.86574 11.7685C9.76613 11.7254 9.65575 11.7039 9.53998 11.7039C9.43498 11.7039 9.33267 11.7227 9.23844 11.7577C9.23844 11.7604 9.23575 11.7604 9.23305 11.7604C9.2169 11.7658 9.20344 11.7712 9.18728 11.7792ZM10.4446 7.00039C10.4446 6.52385 10.0596 6.13885 9.58305 6.13885C9.10651 6.13885 8.72151 6.52385 8.72151 7.00039C8.72151 7.47693 9.10651 7.86193 9.58305 7.86193C10.0596 7.86193 10.4446 7.47693 10.4446 7.00039ZM6.99844 6.13885C7.47498 6.13885 7.85998 6.52385 7.85998 7.00039C7.85998 7.47693 7.47498 7.86193 6.99844 7.86193C6.5219 7.86193 6.1369 7.47693 6.1369 7.00039C6.1369 6.52385 6.5219 6.13885 6.99844 6.13885ZM5.27536 7.00039C5.27536 6.52385 4.89036 6.13885 4.41382 6.13885C3.93728 6.13885 3.55228 6.52385 3.55228 7.00039C3.55228 7.47693 3.93728 7.86193 4.41382 7.86193C4.89036 7.86193 5.27536 7.47693 5.27536 7.00039Z" fill="white"/>
</mask>
<g mask="url(#mask0_45_43481)">
<rect width="14" height="14" fill="#FF9E35"/>
<rect width="14" height="14" fill="#FF9E35"/>
</g>
</svg>
