<svg width="24" height="24" viewBox="0 0 24 24" fill="none" xmlns="http://www.w3.org/2000/svg">
<path d="M18 2.5H6C4.61177 2.5 3.5 3.6105 3.5 4.97V15.88C3.5 17.2395 4.61177 18.35 6 18.35H6.76C7.68932 18.35 8.57687 18.7103 9.23249 19.3654C9.23284 19.3657 9.2332 19.3661 9.23355 19.3664L10.9413 21.0542C11.5265 21.6319 12.4832 21.6319 13.0685 21.0544L18 2.5ZM18 2.5C19.3882 2.5 20.5 3.6105 20.5 4.97V15.88C20.5 17.2395 19.3882 18.35 18 18.35H17.25C16.3316 18.35 15.4338 18.7097 14.7776 19.3653C14.7772 19.3657 14.7768 19.3661 14.7764 19.3664L13.0687 21.0542L18 2.5ZM8.07524 13.2108L8.07493 13.2112C7.40595 14.2073 8.10251 15.56 9.32 15.56H14.68C15.883 15.56 16.5966 14.211 15.9251 13.2112L15.9248 13.2108C15.1384 12.0428 13.6507 11.3 12 11.3C10.3493 11.3 8.86162 12.0427 8.07524 13.2108ZM14.83 8.08C14.83 6.51386 13.5661 5.25 12 5.25C10.4339 5.25 9.17 6.51386 9.17 8.08C9.17 9.63474 10.4325 10.91 12 10.91C13.5661 10.91 14.83 9.64614 14.83 8.08Z" stroke="black"/>
</svg>
